HIERARCHY
ROOT Hips
{
	OFFSET 0.00000 0.00000 0.00000
	CHANNELS 6 Xposition Yposition Zposition Zrotation Yrotation Xrotation 
	JOINT LHipJoint
	{
		OFFSET 0 0 0
		CHANNELS 3 Zrotation Yrotation Xrotation
		JOINT LeftHip
		{
			OFFSET 1.58895 -1.83665 0.71753
			CHANNELS 3 Zrotation Yrotation Xrotation
			JOINT LeftKnee
			{
				OFFSET 2.50528 -6.88321 0.00000
				CHANNELS 3 Zrotation Yrotation Xrotation
				JOINT LeftAnkle
				{
					OFFSET 2.63244 -7.23257 0.00000
					CHANNELS 3 Zrotation Yrotation Xrotation
					JOINT LeftToe
					{
						OFFSET 0.23691 -0.65090 1.72750
						CHANNELS 3 Zrotation Yrotation Xrotation
						End Site
						{
							OFFSET 0.00000 -0.00000 0.92561
						}
					}
				}
			}
		}
	}
	JOINT RHipJoint
	{
		OFFSET 0 0 0
		CHANNELS 3 Zrotation Yrotation Xrotation
		JOINT RightHip
		{
			OFFSET -1.51435 -1.83665 0.71753
			CHANNELS 3 Zrotation Yrotation Xrotation
			JOINT RightKnee
			{
				OFFSET -2.54551 -6.99375 0.00000
				CHANNELS 3 Zrotation Yrotation Xrotation
				JOINT RightAnkle
				{
					OFFSET -2.66027 -7.30903 0.00000
					CHANNELS 3 Zrotation Yrotation Xrotation
					JOINT RightToe
					{
						OFFSET -0.22981 -0.63138 2.03959
						CHANNELS 3 Zrotation Yrotation Xrotation
						End Site
						{
							OFFSET -0.00000 -0.00000 1.07060
						}
					}
				}
			}
		}
	}
	JOINT lowerback
	{
		OFFSET 0 0 0
		CHANNELS 3 Zrotation Yrotation Xrotation
		JOINT Chest
		{
			OFFSET -0.02651 1.86275 -0.11152
			CHANNELS 3 Zrotation Yrotation Xrotation
			JOINT Chest2
			{
				OFFSET 0.01019 1.86224 0.04087
				CHANNELS 3 Zrotation Yrotation Xrotation
				JOINT lowerneck
				{
					OFFSET 0 0 0
					CHANNELS 3 Zrotation Yrotation Xrotation
					JOINT Neck
					{
						OFFSET -0.01926 1.80512 0.08867
						CHANNELS 3 Zrotation Yrotation Xrotation
						JOINT Head
						{
							OFFSET 0.05516 1.76451 -0.38475
							CHANNELS 3 Zrotation Yrotation Xrotation
							End Site
							{
								OFFSET 0.01592 1.82587 -0.14001
							}
						}
					}
				}
				JOINT LeftCollar
				{
					OFFSET 0 0 0
					CHANNELS 3 Zrotation Yrotation Xrotation
					JOINT LeftShoulder
					{
						OFFSET 3.47116 1.51376 0.14491
CHANNELS 3 Zrotation Xrotation Yrotation
						JOINT LeftElbow
						{
OFFSET 0 -4.780950 0.000000
CHANNELS 3 Zrotation Xrotation Yrotation
							JOINT LeftWrist
							{
OFFSET 0 -3.586150 -0.000000
CHANNELS 3 Zrotation Xrotation Yrotation
								JOINT lhand
								{
									OFFSET 0 0 0
CHANNELS 3 Zrotation Xrotation Yrotation
									JOINT LFingers
									{
OFFSET 0 -0.659810 0.000000
CHANNELS 3 Zrotation Xrotation Yrotation
										End Site
										{
OFFSET 0 -0.531960 0.000000
										}
									}
								}
								JOINT LThumb
								{
OFFSET 0 0.000000 0.000000
CHANNELS 3 Zrotation Xrotation Yrotation
									End Site
									{
OFFSET 0 -0.540080 0.540080
									}
								}
							}
						}
					}
				}
				JOINT RightCollar
				{
					OFFSET 0 0 0
					CHANNELS 3 Zrotation Yrotation Xrotation
					JOINT RightShoulder
					{
						OFFSET -3.31725 1.61216 0.35156
CHANNELS 3 Zrotation Xrotation Yrotation
						JOINT RightElbow
						{
OFFSET 0 -4.489130 0.000000
CHANNELS 3 Zrotation Xrotation Yrotation
							JOINT RightWrist
							{
OFFSET 0 -3.705100 0.000000
CHANNELS 3 Zrotation Xrotation Yrotation
								JOINT rhand
								{
									OFFSET 0 0 0
CHANNELS 3 Zrotation Xrotation Yrotation
									JOINT RFingers
									{
OFFSET 0 -0.449140 0.000000
CHANNELS 3 Zrotation Xrotation Yrotation
										End Site
										{
OFFSET 0 -0.362110 0.000000
										}
									}
								}
								JOINT RThumb
								{
OFFSET 0 0.000000 0.000000
CHANNELS 3 Zrotation Xrotation Yrotation
									End Site
									{
OFFSET 0 -0.367630 0.367630
									}
								}
							}
						}
					}
				}
			}
		}
	}
}
MOTION
Frames: 8
Frame Time: 0.008333333333333333
-1.032600 18.123100 5.778600 -4.914800 -4.536600 -0.685600 0.000000 0.000000 0.000000 -12.293300 -2.409300 21.703200 0.991800 -6.338400 -17.769500 -1.077000 18.865300 -13.211700 0.052100 -1.472900 -4.050900 0.000000 0.000000 0.000000 20.518500 -3.904600 8.970700 0.000000 -0.000000 0.000000 -0.790600 -2.369800 -17.814500 -0.089500 -1.929500 5.310800 2.193200 1.587500 1.483400 1.520200 2.169600 -0.096800 0.280500 1.077200 -0.907900 -0.801900 -1.936600 -12.137200 3.555800 -3.347300 21.407000 0.964700 -1.272000 8.760000 -0.000000 -0.000000 0.000000 -3.242800 10.449800 -22.098900 20.558100 -31.308900 5.818600 6.248000 8.495100 24.768200 0.000000 0.000000 0.000000 -7.125000 0.000000 0.000000 -14.168700 5.706900 -13.106200 -0.000000 -0.000000 0.000000 -1.566700 17.925600 26.424200 -23.973600 -35.136300 -7.691400 -11.313400 18.847800 28.006400 0.000000 0.000000 0.000000 7.125000 0.000000 -0.000000 21.089700 57.184000 -6.490200
-1.031485 18.123454 5.778251 -4.915034 -4.541774 -0.674305 0.000000 0.000000 0.000000 -12.281089 -2.332356 21.668660 0.994565 -6.346895 -17.794241 -1.074040 18.824594 -13.130276 0.062935 -1.618558 -4.452613 0.000000 0.000000 0.000000 20.516880 -3.892057 8.953191 0.000000 0.000000 0.000000 -0.788162 -2.371742 -17.789778 -0.092948 -1.966457 5.412902 2.281239 1.602021 1.715378 1.476702 2.202454 -0.250975 0.175970 1.089525 -1.190484 -0.861363 -1.945067 -12.016986 3.664708 -3.373616 21.464959 1.009775 -1.278565 8.761259 0.000000 0.000000 0.000000 -3.181609 10.706384 -22.171290 20.596853 -31.354654 5.838737 6.244318 8.407062 24.748770 0.000000 0.000000 0.000000 -7.125000 0.000000 0.000000 -14.170747 5.726137 -13.102848 0.000000 0.000000 0.000000 -1.491558 18.186392 26.386186 -24.011252 -35.176174 -7.713082 -11.101133 18.795190 28.024010 0.000000 0.000000 0.000000 7.125000 0.000000 0.000000 21.316102 57.156101 -6.549087
-1.030195 18.123423 5.779035 -4.898587 -4.532353 -0.671043 0.000000 0.000000 0.000000 -12.309106 -2.360586 21.662635 0.992357 -6.339972 -17.774127 -1.070438 18.813203 -13.181483 0.057775 -1.551475 -4.267545 0.000000 0.000000 0.000000 20.487992 -3.898084 8.950978 0.000000 0.000000 0.000000 -0.785420 -2.368626 -17.759478 -0.092227 -1.958254 5.390302 2.466158 1.649921 2.066709 1.347109 2.287871 -0.496405 -0.077838 1.124838 -1.625849 -0.912534 -2.003848 -11.800601 3.867000 -3.495856 21.583707 1.075307 -1.320273 8.769893 0.000000 0.000000 0.000000 -2.937587 11.124265 -22.452819 20.650515 -31.418215 5.866708 6.280751 8.316180 24.704226 0.000000 0.000000 0.000000 -7.125000 0.000000 0.000000 -14.148589 5.766056 -13.069841 0.000000 0.000000 0.000000 -1.190697 18.532974 26.104184 -24.003409 -35.167879 -7.708517 -8.508792 17.696500 27.878118 0.000000 0.000000 0.000000 7.125000 0.000000 0.000000 23.811885 56.488028 -6.982479
-1.030215 18.124408 5.781206 -4.889064 -4.559915 -0.672539 0.000000 0.000000 0.000000 -12.325814 -2.360548 21.671800 0.989840 -6.332312 -17.751698 -1.071147 18.822879 -13.201942 0.054351 -1.504566 -4.138253 0.000000 0.000000 0.000000 20.480921 -3.872683 8.960588 0.000000 0.000000 0.000000 -0.785609 -2.394906 -17.774875 -0.084049 -1.869951 5.146376 2.465820 1.681220 2.041125 1.329158 2.328084 -0.488077 -0.096298 1.145150 -1.601395 -0.848995 -2.016940 -11.843083 3.827328 -3.521370 21.650184 1.048179 -1.329580 8.799421 0.000000 0.000000 0.000000 -2.865261 11.125085 -22.566788 20.640833 -31.406705 5.861624 6.206165 8.320692 24.676627 0.000000 0.000000 0.000000 -7.125000 0.000000 0.000000 -14.193408 5.799615 -13.104632 0.000000 0.000000 0.000000 -1.118008 18.516346 25.991154 -23.984730 -35.148084 -7.697769 -7.693040 17.424614 28.534574 0.000000 0.000000 0.000000 7.125000 0.000000 0.000000 25.087225 56.912282 -7.657681
-1.030580 18.123050 5.782835 -4.886784 -4.590476 -0.682100 0.000000 0.000000 0.000000 -12.328956 -2.327991 21.683895 0.987980 -6.326345 -17.734345 -1.066920 18.801626 -13.230998 0.058730 -1.563159 -4.299763 0.000000 0.000000 0.000000 20.480659 -3.849559 8.984466 0.000000 0.000000 0.000000 -0.783905 -2.377432 -17.747785 -0.085875 -1.889780 5.201139 2.447483 1.684005 2.037825 1.344991 2.331079 -0.472070 -0.069468 1.147105 -1.584480 -0.829923 -2.015050 -11.872389 3.760381 -3.508915 21.682184 1.023541 -1.328345 8.813805 0.000000 0.000000 0.000000 -2.899999 11.105553 -22.503574 20.631862 -31.396162 5.856949 6.138752 8.322086 24.715654 0.000000 0.000000 0.000000 -7.125000 0.000000 0.000000 -14.234222 5.767881 -13.153703 0.000000 0.000000 0.000000 -1.148057 18.496175 26.027833 -23.982540 -35.145835 -7.696565 -4.532889 15.925554 29.197254 0.000000 0.000000 0.000000 7.125000 0.000000 0.000000 28.693417 56.848979 -8.830356
-1.030031 18.122044 5.784231 -4.873525 -4.611570 -0.673717 0.000000 0.000000 0.000000 -12.348857 -2.338213 21.683493 0.987769 -6.325806 -17.732807 -1.066906 18.812106 -13.273283 0.052250 -1.474915 -4.056628 0.000000 0.000000 0.000000 20.461831 -3.829398 8.995412 0.000000 0.000000 0.000000 -0.787475 -2.336967 -17.765127 -0.094532 -1.982588 5.457544 2.431056 1.682226 2.020816 1.349925 2.327545 -0.468869 -0.054557 1.145707 -1.572523 -0.858225 -2.016125 -11.852387 3.766718 -3.505188 21.667899 1.030987 -1.328707 8.805668 0.000000 0.000000 0.000000 -2.953351 11.058071 -22.350744 20.576439 -31.330595 5.828141 6.085978 8.430820 24.788149 0.000000 0.000000 0.000000 -7.125000 0.000000 0.000000 -14.266302 5.702270 -13.203778 0.000000 0.000000 0.000000 -1.146003 18.505896 26.044021 -23.987532 -35.151070 -7.699388 -6.585016 16.862999 28.586631 0.000000 0.000000 0.000000 7.125000 0.000000 0.000000 26.221836 56.731093 -7.920122
-1.029340 18.122215 5.786268 -4.885454 -4.625832 -0.660308 0.000000 0.000000 0.000000 -12.345645 -2.356186 21.688046 0.987953 -6.326465 -17.734688 -1.068576 18.832765 -13.308783 0.055013 -1.513425 -4.162792 0.000000 0.000000 0.000000 20.470898 -3.812380 8.992587 0.000000 0.000000 0.000000 -0.789317 -2.321239 -17.777279 -0.100260 -2.041604 5.620581 2.452765 1.684914 1.988180 1.356488 2.330154 -0.450844 -0.058576 1.147281 -1.535098 -0.831617 -2.018891 -11.906419 3.696840 -3.499237 21.681128 1.003093 -1.330121 8.818153 0.000000 0.000000 0.000000 -2.970713 11.007757 -22.321123 20.554400 -31.304500 5.816700 6.029529 8.451349 24.828185 0.000000 0.000000 0.000000 -7.125000 0.000000 0.000000 -14.300500 5.668603 -13.247132 0.000000 0.000000 0.000000 -1.134660 18.493718 25.994156 -23.987963 -35.151578 -7.699650 -8.397619 17.673209 27.900833 0.000000 0.000000 0.000000 7.125000 0.000000 0.000000 23.937922 56.485943 -7.021343
-1.028482 18.122694 5.787688 -4.872446 -4.623592 -0.657697 0.000000 0.000000 0.000000 -12.372072 -2.396324 21.705226 0.989717 -6.331967 -17.750690 -1.080543 18.910476 -13.294973 0.057164 -1.542895 -4.244017 0.000000 0.000000 0.000000 20.454511 -3.811133 8.985326 0.000000 0.000000 0.000000 -0.786420 -2.358363 -17.764989 -0.093833 -1.975313 5.437496 2.481907 1.706452 1.997275 1.326992 2.359412 -0.446529 -0.106112 1.161603 -1.532815 -0.831820 -2.034452 -11.975250 3.728759 -3.529629 21.709097 1.009975 -1.339707 8.842026 0.000000 0.000000 0.000000 -2.926483 10.987066 -22.364547 20.541589 -31.289280 5.810001 6.014142 8.464033 24.853210 0.000000 0.000000 0.000000 -7.125000 0.000000 0.000000 -14.309801 5.645655 -13.262829 0.000000 0.000000 0.000000 -1.075799 18.507079 25.912748 -24.005891 -35.170455 -7.709962 -8.436375 17.664230 27.856778 0.000000 0.000000 0.000000 7.125000 0.000000 0.000000 23.868889 56.453878 -6.980522
